Coordinates
version=1
nRows=10
nColumns=40
inDegrees=yes

Units are S.I. units (second, meters, Newtons, ...)
Angles are in degrees.

endheader
time	pelvis_tilt	pelvis_list	pelvis_rotation	pelvis_tx	pelvis_ty	pelvis_tz	hip_flexion_r	hip_adduction_r	hip_rotation_r	knee_angle_r	knee_angle_r_beta	ankle_angle_r	subtalar_angle_r	mtp_angle_r	hip_flexion_l	hip_adduction_l	hip_rotation_l	knee_angle_l	knee_angle_l_beta	ankle_angle_l	subtalar_angle_l	mtp_angle_l	lumbar_extension	lumbar_bending	lumbar_rotation	arm_flex_r	arm_add_r	arm_rot_r	elbow_flex_r	pro_sup_r	wrist_flex_r	wrist_dev_r	arm_flex_l	arm_add_l	arm_rot_l	elbow_flex_l	pro_sup_l	wrist_flex_l	wrist_dev_l
     15.75000000	      9.51180644	     26.95906020	     81.06251575	      0.56191747	      1.00958527	     -1.05573469	    -14.54679174	      8.99131301	      3.09126632	     13.71249183	      0.23932813	      7.89602154	      0.00000000	      0.00000000	    -27.57792525	     -8.96681820	    -10.83822220	     54.43852435	      0.95013149	     -5.17260055	      0.00000000	      0.00000000	    -40.58623122	      5.65929634	      7.52628143	     10.64739866	    -12.80591829	      3.33498689	    143.48347786	     83.35756612	      0.00000000	      0.00000000	      0.46594798	     -3.78955128	     -0.78841640	    139.42742222	     81.60443889	      0.00000000	      0.00000000
     15.76000000	      8.92360101	     27.34262789	     81.34051835	      0.56270544	      1.01320188	     -1.05543866	    -16.33215779	      8.31460975	      3.09237877	     12.53688640	      0.21880995	      7.98530255	      0.00000000	      0.00000000	    -26.10909171	     -8.48276128	    -10.53092518	     55.41107708	      0.96710574	     -3.50769082	      0.00000000	      0.00000000	    -40.92959102	      5.11618057	      7.55787253	     10.82034855	    -13.06669197	      3.26029105	    143.44005392	     83.30751460	      0.00000000	      0.00000000	      0.76529401	     -4.02449558	     -0.74601225	    139.50058647	     81.52016599	      0.00000000	      0.00000000
     15.77000000	      8.18216568	     27.74546313	     81.92126340	      0.56294257	      1.01675833	     -1.05488069	    -18.08256860	      7.53364656	      2.53691471	     11.33238353	      0.19778740	      7.74089707	      0.00000000	      0.00000000	    -24.59621051	     -7.85453489	     -9.83411462	     56.02828557	      0.97787806	     -2.39924813	      0.00000000	      0.00000000	    -41.29661333	      4.62843051	      7.28660751	     11.14179888	    -13.30965851	      3.25722760	    143.33437682	     83.67549716	      0.00000000	      0.00000000	      1.07263968	     -4.27187975	     -0.81464862	    139.58645989	     81.68895319	      0.00000000	      0.00000000
     15.78000000	      7.50749540	     27.77352807	     81.98074373	      0.56391292	      1.01973567	     -1.05367127	    -19.20640496	      6.77769913	      2.84318909	     10.57881090	      0.18463508	      7.85340608	      0.00000000	      0.00000000	    -22.81361199	     -7.18675457	     -9.77462738	     56.39915417	      0.98435094	     -1.32670142	      0.00000000	      0.00000000	    -41.40687077	      3.92441622	      7.51879867	     11.36073697	    -13.65422695	      3.36837347	    143.22365265	     83.59721593	      0.00000000	      0.00000000	      1.43018768	     -4.46055646	     -0.80626304	    139.61210793	     81.61831310	      0.00000000	      0.00000000
     15.79000000	      6.82109722	     27.89341949	     82.45939688	      0.56432755	      1.02261668	     -1.05280710	    -20.63390436	      6.11551409	      2.46026075	      9.42682374	      0.16452911	      7.67475155	      0.00000000	      0.00000000	    -21.12876195	     -6.62611429	     -9.38211236	     56.45476232	      0.98532148	     -0.64367355	      0.00000000	      0.00000000	    -41.55700615	      3.44660891	      7.40664204	     11.49727146	    -13.90642926	      3.46780126	    143.11913406	     83.74207213	      0.00000000	      0.00000000	      1.74269826	     -4.69289853	     -0.82798534	    139.64681338	     81.75136700	      0.00000000	      0.00000000
     15.80000000	      6.17532256	     27.77516624	     82.64965200	      0.56494517	      1.02493509	     -1.05182993	    -21.73534700	      5.44376957	      2.47972227	      8.42460540	      0.14703710	      7.75429790	      0.00000000	      0.00000000	    -19.32569544	     -6.01926700	     -9.26573373	     56.20637824	      0.98098636	     -0.36727999	      0.00000000	      0.00000000	    -41.50022791	      2.87452126	      7.52404998	     11.68363003	    -14.23243419	      3.52204862	    143.05783616	     83.70267948	      0.00000000	      0.00000000	      2.01414446	     -4.86827235	     -0.81187046	    139.65529617	     81.73887449	      0.00000000	      0.00000000
     15.81000000	      5.58393666	     27.74633564	     82.93729995	      0.56539915	      1.02713664	     -1.05092381	    -23.05757705	      4.85062204	      2.29160559	      7.20825999	      0.12580787	      7.81938766	      0.00000000	      0.00000000	    -17.69337856	     -5.54498813	     -9.16672022	     55.72675496	      0.97261536	      0.63237284	      0.00000000	      0.00000000	    -41.54026839	      2.40801598	      7.55637678	     11.85958005	    -14.55557705	      3.59968993	    143.00277809	     83.70942180	      0.00000000	      0.00000000	      2.23816546	     -5.11955403	     -0.80503450	    139.68777630	     81.77764764	      0.00000000	      0.00000000
     15.82000000	      5.12514350	     27.75564076	     83.24495812	      0.56588944	      1.02908230	     -1.05011202	    -24.47023933	      4.42264773	      1.91449597	      5.90582063	      0.10307601	      7.46431077	      0.00000000	      0.00000000	    -16.21086318	     -5.30770827	     -9.23613925	     54.97712730	      0.95953188	      1.60162248	      0.00000000	      0.00000000	    -41.62911963	      2.07119987	      7.56351148	     12.06362611	    -14.82654784	      3.62324782	    142.96968207	     83.81496028	      0.00000000	      0.00000000	      2.43025459	     -5.39576673	     -0.85062952	    139.78626128	     81.94777478	      0.00000000	      0.00000000
     15.83000000	      4.64327669	     27.60399715	     83.35842408	      0.56655346	      1.03049933	     -1.04910535	    -25.55526097	      3.92168333	      1.73808169	      4.86799289	      0.08496250	      7.33412525	      0.00000000	      0.00000000	    -14.65836071	     -4.98998788	     -9.49780911	     54.00481106	      0.94256176	      2.12404037	      0.00000000	      0.00000000	    -41.57385006	      1.61113471	      7.71915143	     12.24343115	    -15.09895628	      3.60907610	    142.93107244	     83.84872677	      0.00000000	      0.00000000	      2.62757549	     -5.61142504	     -0.86307885	    139.82074383	     82.06498583	      0.00000000	      0.00000000
     15.84000000	      4.14758222	     27.28838545	     83.31597353	      0.56745580	      1.03150471	     -1.04773027	    -26.30372661	      3.36527460	      1.71688644	      4.07894001	      0.07119093	      7.61568670	      0.00000000	      0.00000000	    -12.99973238	     -4.66432400	     -9.97267108	     52.82361995	      0.92194609	      2.61523376	      0.00000000	      0.00000000	    -41.40593695	      1.05475120	      7.98401937	     12.43398040	    -15.38324401	      3.72057038	    142.84405910	     83.76235378	      0.00000000	      0.00000000	      2.81567041	     -5.81337226	     -0.85596220	    139.80481486	     82.04671160	      0.00000000	      0.00000000
